PathFileType	4	(X/Y/Z)	/Users/itak/Documents/Research/Walk-IL/dataset/trc/00017_00004.trc
DataRate	CameraRate	NumFrames	NumMarkers	Units	OrigDataRate	OrigDataStartFrame	OrigNumFrames
100.000000	100.000000	4	56	mm	100.000000	385	441
Frame#	Time	RPSI			LPSI			L3			STRN			T10			C7			CLAV			RBAK			LBAK			LSHO			LUPA			LAEL			LAOL			LWTS			LWPS			LFRA			LIFD			LHPS			LHTS			RSHO			RUPA			RAEL			RAOL			RWTS			RWPS			RFRA			RIFD			RHTS			RHPS			RBHD			LFHD			RFHD			LBHD			LHIP			RHIP			RASI			LASI			LKNE			LANK			LTIP			LTOE			LMT1			LMT5			LHEE			RKNE			RTHI			RANK			RTIP			RTOE			RMT1			RMT5			RHEE			LTHI			*53			*54			*55			
		X1	Y1	Z1	X2	Y2	Z2	X3	Y3	Z3	X4	Y4	Z4	X5	Y5	Z5	X6	Y6	Z6	X7	Y7	Z7	X8	Y8	Z8	X9	Y9	Z9	X10	Y10	Z10	X11	Y11	Z11	X12	Y12	Z12	X13	Y13	Z13	X14	Y14	Z14	X15	Y15	Z15	X16	Y16	Z16	X17	Y17	Z17	X18	Y18	Z18	X19	Y19	Z19	X20	Y20	Z20	X21	Y21	Z21	X22	Y22	Z22	X23	Y23	Z23	X24	Y24	Z24	X25	Y25	Z25	X26	Y26	Z26	X27	Y27	Z27	X28	Y28	Z28	X29	Y29	Z29	X30	Y30	Z30	X31	Y31	Z31	X32	Y32	Z32	X33	Y33	Z33	X34	Y34	Z34	X35	Y35	Z35	X36	Y36	Z36	X37	Y37	Z37	X38	Y38	Z38	X39	Y39	Z39	X40	Y40	Z40	X41	Y41	Z41	X42	Y42	Z42	X43	Y43	Z43	X44	Y44	Z44	X45	Y45	Z45	X46	Y46	Z46	X47	Y47	Z47	X48	Y48	Z48	X49	Y49	Z49	X50	Y50	Z50	X51	Y51	Z51	X52	Y52	Z52	X53	Y53	Z53	X54	Y54	Z54	X55	Y55	Z55	X56	Y56	Z56	

386	3.85	-1012.563110351562	1071.280395507812	-166.0137023925781	-1027.280395507812	1064.797729492188	-329.1739807128906	-1022.845764160156	1126.456176757812	-257.5342712402344	-800.2842407226562	1322.362060546875	-260.7718200683594	-1048.4326171875	1272.315185546875	-263.4372253417969	-1004.151794433594	1541.208740234375	-276.7894592285156	-844.167236328125	1448.024291992188	-266.8428649902344	-1054.580932617188	1402.533813476562	-196.6284484863281	-1017.063415527344	1497.12939453125	-375.3496704101562	-912.5388793945312	1505.26904296875	-446.600341796875	-936.7915649414062	1378.474731445312	-524.8671264648438	-932.0235595703125	1158.965698242188	-544.7177734375	-994.7573852539062	1148.33154296875	-459.6861877441406	-855.4349975585938	903.8800659179688	-478.6998901367188	-928.2606811523438	891.2977905273438	-527.2105712890625	-920.5082397460938	1042.427734375	-547.8492431640625	-833.86328125	718.2631225585938	-456.9365234375	-898.2777709960938	801.1752319335938	-522.9415893554688	-834.6470336914062	810.189208984375	-490.6452026367188	-929.9066162109375	1527.864135742188	-100.5637893676758	-945.2647094726562	1457.455688476562	-27.02302169799805	-988.5585327148438	1191.347290039062	-1.175662755966187	-987.9948120117188	1161.3671875	-97.03041839599609	-862.781494140625	929.266845703125	-20.79780960083008	-932.9935302734375	916.7359619140625	39.52843475341797	-977.6910400390625	1115.612426757812	16.46591949462891	-847.58349609375	741.4562377929688	-27.94987869262695	-834.3622436523438	818.6156616210938	-1.355885624885559	-895.4871215820312	816.3381958007812	45.41519927978516	-945.1446533203125	1716.583374023438	-189.9879150390625	-770.000244140625	1738.0029296875	-306.8099670410156	-771.7694702148438	1736.431884765625	-208.1436157226562	-950.1380615234375	1723.731323242188	-334.4671936035156	-940.5537109375	962.5912475585938	-442.4737243652344	-894.7166748046875	963.0757446289062	-70.054443359375	-796.375244140625	993.1444091796875	-151.1212768554688	-819.8114624023438	1006.6376953125	-385.2759094238281	-909.8699340820312	515.4307861328125	-387.8821105957031	-998.9313354492188	39.08937835693359	-372.1787109375	-988.0852661132812	286.2565002441406	-398.938232421875	-777.1646728515625	40.89002990722656	-312.0343017578125	-835.172607421875	50.76444244384766	-293.8151550292969	-874.8400268554688	38.66738510131836	-393.5780639648438	-1067.190307617188	46.68012619018555	-317.0504150390625	-895.179931640625	525.87109375	-121.3545989990234	-874.414794921875	794.3194580078125	-74.21407318115234	-1025.827514648438	46.53112411499023	-146.1100921630859	-924.1054077148438	402.2974243164062	-121.3230590820312	-792.8941040039062	48.47532653808594	-175.7236785888672	-854.9188842773438	50.64005661010742	-209.6254119873047	-877.299072265625	45.40636444091797	-115.1943740844727	-1078.770263671875	47.12862777709961	-193.7953796386719	-931.0438842773438	653.3184204101562	-426.0933532714844	nan	nan	nan	nan	nan	nan	nan	nan	nan	
387	3.86	-1012.616455078125	1071.275634765625	-166.3153076171875	-1027.360717773438	1064.80322265625	-329.466552734375	-1023.080749511719	1126.478149414062	-257.8711853027344	-800.5629272460938	1322.466552734375	-261.0709838867188	-1048.601440429688	1272.252807617188	-263.865966796875	-1004.551818847656	1541.216552734375	-277.09619140625	-844.5831298828125	1448.083374023438	-267.1001892089844	-1055.062255859375	1402.432739257812	-197.0763244628906	-1017.343505859375	1497.135131835938	-375.7411499023438	-912.6964721679688	1505.390014648438	-446.8436584472656	-936.6257934570312	1378.619873046875	-525.2531127929688	-931.8546752929688	1159.130249023438	-545.2853393554688	-994.6271362304688	1148.424072265625	-460.3527526855469	-855.8643798828125	903.6712036132812	-479.6255798339844	-928.6619873046875	891.4205322265625	-528.2894897460938	-920.4600219726562	1042.580932617188	-548.5804443359375	-834.6533203125	717.9818725585938	-457.7519836425781	-898.9725952148438	801.185302734375	-524.1327514648438	-835.3806762695312	809.89501953125	-491.6848449707031	-930.4390869140625	1527.80615234375	-100.8281173706055	-945.8119506835938	1457.293701171875	-27.3734245300293	-988.5734252929688	1191.004516601562	-1.862690806388855	-988.1029052734375	1161.203491210938	-97.77943420410156	-861.1006469726562	929.7577514648438	-22.3820915222168	-931.1777954101562	916.5330200195312	38.00348663330078	-977.3422241210938	1115.186889648438	15.59414577484131	-844.462890625	742.1196899414062	-30.09503173828125	-831.7366333007812	819.335693359375	-3.252785205841064	-892.8358764648438	816.41064453125	43.57187652587891	-945.64892578125	1716.60888671875	-190.2316284179688	-770.4708251953125	1738.077880859375	-307.0362243652344	-772.3216552734375	1736.528076171875	-208.3436279296875	-950.6356201171875	1723.746337890625	-334.7237548828125	-940.8450927734375	962.5963134765625	-442.8101501464844	-894.6228637695312	963.14306640625	-70.42013549804688	-796.3204956054688	993.2821655273438	-151.564453125	-819.7406616210938	1006.78515625	-385.7223510742188	-909.8065185546875	515.4284057617188	-388.070068359375	-998.9284057617188	39.08245468139648	-372.1829833984375	-988.05908203125	286.2205810546875	-399.0413513183594	-777.1450805664062	40.88087844848633	-312.0388793945312	-835.1843872070312	50.83198547363281	-293.8217468261719	-874.8333740234375	38.65219116210938	-393.5862731933594	-1067.184326171875	46.67660140991211	-317.05615234375	-895.1148071289062	525.9046020507812	-121.5371627807617	-874.4110107421875	794.3701782226562	-74.60610198974609	-1025.807861328125	46.59092712402344	-146.1290893554688	-924.0728759765625	402.3853454589844	-121.4837799072266	-792.856201171875	48.33982086181641	-175.7682037353516	-854.8611450195312	50.57929992675781	-209.6235504150391	-877.2877197265625	45.40305328369141	-115.1941452026367	-1078.71337890625	47.19751358032227	-193.7889404296875	-931.0219116210938	653.2842407226562	-426.3750305175781	nan	nan	nan	nan	nan	nan	nan	nan	nan	
388	3.87	-1012.662231445312	1071.271240234375	-166.5861663818359	-1027.420043945312	1064.799926757812	-329.7104797363281	-1023.331176757812	1126.51123046875	-258.1596984863281	-800.8417358398438	1322.58056640625	-261.3482055664062	-1048.741333007812	1272.208862304688	-264.2308044433594	-1004.970886230469	1541.217163085938	-277.3733520507812	-845.000732421875	1448.154907226562	-267.3273315429688	-1055.508178710938	1402.350341796875	-197.4575500488281	-1017.631713867188	1497.156616210938	-376.0821533203125	-912.8568115234375	1505.53466796875	-447.0465698242188	-936.4700927734375	1378.79541015625	-525.6013793945312	-931.6690063476562	1159.320678710938	-545.8137817382812	-994.4962768554688	1148.541748046875	-460.9887084960938	-856.2308349609375	903.517333984375	-480.508056640625	-929.0001831054688	891.5759887695312	-529.3348388671875	-920.376220703125	1042.768798828125	-549.27294921875	-835.2883911132812	717.7570190429688	-458.49951171875	-899.57275390625	801.2342529296875	-525.2875366210938	-836.04345703125	809.6571044921875	-492.670654296875	-930.9415893554688	1527.769897460938	-101.0662231445312	-946.3138427734375	1457.162841796875	-27.68664360046387	-988.5541381835938	1190.708129882812	-2.490067005157471	-988.2113647460938	1161.081665039062	-98.46807098388672	-859.3966674804688	930.2907104492188	-23.89325904846191	-929.3308715820312	916.38232421875	36.56608963012695	-976.9387817382812	1114.81005859375	14.79821109771729	-841.3917236328125	742.845947265625	-32.18589782714844	-829.1302490234375	820.0958251953125	-5.089122772216797	-890.1991577148438	816.5432739257812	41.7980842590332	-946.1631469726562	1716.637329101562	-190.4335479736328	-770.9248046875	1738.165893554688	-307.222900390625	-772.8678588867188	1736.6123046875	-208.5050354003906	-951.103271484375	1723.777709960938	-334.9384765625	-941.1349487304688	962.6173095703125	-443.1239624023438	-894.5078735351562	963.2093505859375	-70.76028442382812	-796.26513671875	993.4254150390625	-151.9780578613281	-819.6608276367188	1006.949829101562	-386.1512451171875	-909.6491088867188	515.4194946289062	-388.2724609375	-998.9229125976562	39.08174896240234	-372.1833801269531	-987.9866333007812	286.1927490234375	-399.1218872070312	-777.119140625	40.86743545532227	-312.042724609375	-835.18994140625	50.88174819946289	-293.8273620605469	-874.8258666992188	38.63869476318359	-393.59228515625	-1067.176025390625	46.67792510986328	-317.0581970214844	-895.0358276367188	525.9431762695312	-121.7289962768555	-874.3709106445312	794.4323120117188	-74.97187042236328	-1025.783569335938	46.65748977661133	-146.153076171875	-924.0242919921875	402.4759216308594	-121.6476135253906	-792.816162109375	48.18647003173828	-175.81884765625	-854.7931518554688	50.50969314575195	-209.622802734375	-877.2744140625	45.40117645263672	-115.1871948242188	-1078.676025390625	47.28957366943359	-193.7960052490234	-930.8958740234375	653.2589721679688	-426.5963134765625	nan	nan	nan	nan	nan	nan	nan	nan	nan	
389	3.88	-1012.7041015625	1071.2626953125	-166.8388519287109	-1027.458374023438	1064.779174804688	-329.9236145019531	-1023.581787109375	1126.545166015625	-258.413330078125	-801.1157836914062	1322.69873046875	-261.5994873046875	-1048.860229492188	1272.177124023438	-264.537109375	-1005.413452148438	1541.205078125	-277.6325378417969	-845.4102783203125	1448.236694335938	-267.5223999023438	-1055.906982421875	1402.280517578125	-197.7702941894531	-1017.928039550781	1497.189086914062	-376.3729858398438	-913.0348510742188	1505.698486328125	-447.212646484375	-936.3515014648438	1378.99609375	-525.9144287109375	-931.4768676757812	1159.533569335938	-546.3020629882812	-994.3772583007812	1148.680908203125	-461.5869140625	-856.5386962890625	903.4219360351562	-481.3522033691406	-929.280029296875	891.76220703125	-530.3388671875	-920.2705688476562	1042.98876953125	-549.9264526367188	-835.697998046875	717.6102905273438	-459.1745300292969	-900.0762329101562	801.3212280273438	-526.4013061523438	-836.6145629882812	809.49560546875	-493.6147766113281	-931.4214477539062	1527.749267578125	-101.2803268432617	-946.7653198242188	1457.060668945312	-27.95920562744141	-988.4996337890625	1190.452514648438	-3.053438901901245	-988.316650390625	1160.995971679688	-99.09507751464844	-857.6920776367188	930.8602905273438	-25.32859230041504	-927.4619750976562	916.2793579101562	35.22142791748047	-976.488037109375	1114.478881835938	14.07948398590088	-838.385986328125	743.6197509765625	-34.20914459228516	-826.5701293945312	820.8809814453125	-6.861865520477295	-887.5872192382812	816.7272338867188	40.09881973266602	-946.6948852539062	1716.670288085938	-190.5979309082031	-771.363525390625	1738.257690429688	-307.3727722167969	-773.4009399414062	1736.679443359375	-208.6349945068359	-951.5429077148438	1723.819458007812	-335.1144409179688	-941.3910522460938	962.6388549804688	-443.4165649414062	-894.3971557617188	963.272705078125	-71.08216094970703	-796.220703125	993.56689453125	-152.3571319580078	-819.581298828125	1007.11376953125	-386.5553588867188	-909.4273071289062	515.3960571289062	-388.4862976074219	-998.9154052734375	39.08466339111328	-372.1802978515625	-987.8867797851562	286.1715393066406	-399.1847839355469	-777.0881958007812	40.85007095336914	-312.0461730957031	-835.1902465820312	50.91281127929688	-293.8316345214844	-874.8192749023438	38.62771606445312	-393.5969848632812	-1067.16650390625	46.68288040161133	-317.0574035644531	-894.9507446289062	525.9869384765625	-121.927619934082	-874.307861328125	794.5013427734375	-75.29071044921875	-1025.7529296875	46.72787857055664	-146.1807403564453	-923.9683837890625	402.5673522949219	-121.8108825683594	-792.7741088867188	48.01416778564453	-175.8748321533203	-854.7156372070312	50.43020248413086	-209.6231384277344	-877.2587890625	45.39693450927734	-115.179557800293	-1078.658813476562	47.40282440185547	-193.8169403076172	-930.6848754882812	653.2368774414062	-426.7557678222656	nan	nan	nan	nan	nan	nan	nan	nan	nan	
